<svg width="11" height="11" viewBox="0 0 11 11" fill="none" xmlns="http://www.w3.org/2000/svg">
<g clip-path="url(#clip0_101_105)">
<path d="M4.75961 4.85994C4.7813 4.71676 4.82902 4.59094 4.88976 4.48248C4.95051 4.37401 5.03728 4.2829 5.14574 4.21348C5.24987 4.1484 5.38003 4.11803 5.54056 4.11369C5.64035 4.11803 5.73146 4.13539 5.81389 4.17009C5.90066 4.20914 5.97876 4.26121 6.0395 4.32628C6.10024 4.39136 6.14797 4.46946 6.18701 4.55623C6.22606 4.643 6.24342 4.73845 6.24775 4.8339H7.02437C7.01569 4.62999 6.97664 4.44343 6.90289 4.27422C6.82913 4.10502 6.72934 3.9575 6.59918 3.83602C6.46902 3.71454 6.31283 3.61909 6.13061 3.54967C5.94839 3.48025 5.74881 3.44988 5.52754 3.44988C5.24553 3.44988 4.99823 3.49761 4.78998 3.5974C4.58172 3.69718 4.40818 3.82734 4.26934 3.99655C4.13051 4.16576 4.02638 4.36099 3.9613 4.5866C3.89622 4.81221 3.85717 5.0465 3.85717 5.29814V5.41528C3.85717 5.66692 3.89188 5.90121 3.95696 6.12681C4.02204 6.35242 4.12617 6.54766 4.265 6.71253C4.40384 6.8774 4.57738 7.01189 4.78564 7.10734C4.99389 7.20279 5.24119 7.25486 5.5232 7.25486C5.72712 7.25486 5.91802 7.22015 6.0959 7.15507C6.27379 7.08999 6.42998 6.99888 6.56447 6.88173C6.69897 6.76459 6.80744 6.63009 6.88553 6.4739C6.96363 6.31771 7.01135 6.15285 7.01569 5.97496H6.23908C6.23474 6.06607 6.21304 6.14851 6.174 6.2266C6.13495 6.3047 6.08289 6.36978 6.01781 6.42618C5.95273 6.48258 5.87897 6.52597 5.7922 6.55634C5.70976 6.58671 5.62299 6.59539 5.53188 6.59972C5.37569 6.59539 5.24553 6.56502 5.14574 6.49994C5.03728 6.43052 4.95051 6.33941 4.88976 6.23094C4.82902 6.12248 4.7813 5.99232 4.75961 5.84914C4.73791 5.70597 4.7249 5.55845 4.7249 5.41528V5.29814C4.7249 5.14628 4.73791 5.00311 4.75961 4.85994V4.85994ZM5.59262 1.01591C3.1977 1.01591 1.254 2.95962 1.254 5.35454C1.254 7.74946 3.1977 9.69316 5.59262 9.69316C7.98754 9.69316 9.93125 7.74946 9.93125 5.35454C9.93125 2.95962 7.98754 1.01591 5.59262 1.01591ZM5.59262 8.82544C3.67929 8.82544 2.12172 7.26787 2.12172 5.35454C2.12172 3.44121 3.67929 1.88364 5.59262 1.88364C7.50595 1.88364 9.06352 3.44121 9.06352 5.35454C9.06352 7.26787 7.50595 8.82544 5.59262 8.82544Z" fill="#FAFBFF"/>
</g>
<defs>
<clipPath id="clip0_101_105">
<rect width="10.4127" height="10.4127" fill="white" transform="translate(0.386272 0.148193)"/>
</clipPath>
</defs>
</svg>
