<svg width="12" height="12" viewBox="0 0 12 12" fill="none" xmlns="http://www.w3.org/2000/svg">
<path d="M5.21028 9.58327C5.21027 9.51964 5.19627 9.45679 5.16926 9.39918C5.14225 9.34157 5.10291 9.2906 5.05401 9.24988C5.00511 9.20917 4.94785 9.17971 4.8863 9.16359C4.82475 9.14747 4.7604 9.14509 4.69782 9.15661C4.12986 9.26084 3.41276 9.27652 3.2221 8.74097C3.05584 8.3262 2.78045 7.96415 2.42513 7.69319C2.39978 7.6794 2.37561 7.66353 2.35289 7.64574C2.32179 7.5637 2.26656 7.49303 2.19447 7.44303C2.12239 7.39303 2.03684 7.36606 1.94911 7.36567H1.94699C1.83228 7.36563 1.72222 7.41104 1.64091 7.49196C1.55959 7.57287 1.51365 7.68271 1.51313 7.79742C1.51143 8.1512 1.86499 8.37788 2.00843 8.45457C2.17756 8.62451 2.3135 8.82453 2.40924 9.04435C2.56728 9.48838 3.02656 10.1621 4.34679 10.0752C4.34723 10.0905 4.34764 10.1049 4.34785 10.118L4.34976 10.2341C4.34976 10.3492 4.39547 10.4595 4.47683 10.5409C4.5582 10.6222 4.66855 10.668 4.78362 10.668C4.89869 10.668 5.00904 10.6222 5.09041 10.5409C5.17177 10.4595 5.21748 10.3492 5.21748 10.2341L5.21536 10.096C5.21325 10.0137 5.21028 9.89468 5.21028 9.58327ZM9.83829 3.02067C9.85206 2.96643 9.86562 2.90627 9.87748 2.83848C9.94765 2.35498 9.88648 1.8615 9.70038 1.40977C9.6769 1.35088 9.64082 1.29784 9.59467 1.25436C9.54852 1.21089 9.49343 1.17803 9.43324 1.1581C9.27878 1.10598 8.70851 1.00345 7.61793 1.70043C6.71139 1.4871 5.7677 1.4871 4.86116 1.70043C3.77502 1.01366 3.20769 1.10685 3.05474 1.156C2.99307 1.17513 2.93646 1.20781 2.88907 1.25165C2.84167 1.29549 2.80468 1.34938 2.78082 1.40938C2.59092 1.86978 2.53041 2.37332 2.60583 2.86561C2.61643 2.92111 2.62786 2.97238 2.63973 3.01941C2.28031 3.49815 2.08886 4.0821 2.09507 4.68071C2.0939 4.81427 2.10005 4.94779 2.1135 5.08068C2.25841 7.07755 3.56 7.67707 4.46691 7.88299C4.44806 7.93723 4.4309 7.99527 4.41564 8.05671C4.38846 8.16834 4.40665 8.2862 4.46623 8.38443C4.52581 8.48267 4.62192 8.55327 4.73348 8.58075C4.84504 8.60824 4.96294 8.59036 5.06134 8.53104C5.15973 8.47172 5.23059 8.3758 5.25837 8.26432C5.28597 8.11976 5.35673 7.98696 5.46132 7.88341C5.52456 7.82805 5.57034 7.7555 5.59311 7.67459C5.61587 7.59369 5.61463 7.50791 5.58954 7.42769C5.56445 7.34748 5.51658 7.27628 5.45177 7.22277C5.38696 7.16925 5.30799 7.13573 5.22447 7.12627C3.72587 6.9551 3.07529 6.34456 2.97741 5.00103C2.96657 4.89461 2.96169 4.78768 2.9628 4.68072C2.95584 4.25408 3.09679 3.83819 3.3617 3.50369C3.38832 3.46882 3.41667 3.43531 3.44665 3.40328C3.49977 3.34384 3.53549 3.27091 3.54988 3.19251C3.56426 3.1141 3.55677 3.03325 3.52822 2.95882C3.49895 2.88052 3.47641 2.79987 3.46085 2.71774C3.42551 2.4842 3.4371 2.24595 3.49496 2.01695C3.87204 2.12345 4.22693 2.29681 4.54273 2.52877C4.59496 2.56355 4.65405 2.5867 4.71601 2.59664C4.77796 2.60658 4.84133 2.60309 4.90182 2.58639C5.7787 2.34842 6.70318 2.34857 7.57998 2.58683C7.6408 2.6035 7.7045 2.6068 7.76671 2.59649C7.82892 2.58617 7.88815 2.5625 7.94033 2.52709C8.25466 2.29416 8.60806 2.11926 8.98389 2.01061C9.04149 2.23411 9.05438 2.46679 9.02181 2.69529C9.0061 2.78533 8.98155 2.87361 8.94851 2.95883C8.91996 3.03326 8.91247 3.11411 8.92686 3.19252C8.94125 3.27092 8.97696 3.34385 9.03008 3.40329C9.06355 3.44099 9.09702 3.48167 9.1271 3.5198C9.39015 3.84863 9.52871 4.25974 9.5184 4.68071C9.51918 4.79335 9.51374 4.90594 9.50209 5.01797C9.40654 6.34371 8.75342 6.95468 7.24782 7.12627C7.16429 7.13578 7.08531 7.16936 7.02051 7.22293C6.9557 7.27649 6.90786 7.34773 6.88279 7.42799C6.85772 7.50824 6.85651 7.59405 6.87931 7.67498C6.9021 7.7559 6.94792 7.82847 7.01119 7.88384C7.11906 7.99014 7.18998 8.12826 7.2135 8.27787C7.24282 8.39401 7.25629 8.51359 7.25355 8.63335V9.64599C7.2493 9.92689 7.2493 10.1375 7.2493 10.2341C7.2493 10.3491 7.29501 10.4595 7.37637 10.5409C7.45774 10.6222 7.56809 10.6679 7.68316 10.6679C7.79823 10.6679 7.90858 10.6222 7.98995 10.5409C8.07131 10.4595 8.11702 10.3491 8.11702 10.2341C8.11702 10.14 8.11702 9.93367 8.12126 9.65276V8.63335C8.12475 8.44151 8.10216 8.25008 8.0541 8.06433C8.04036 8.00335 8.02353 7.94311 8.00368 7.88384C8.6637 7.7742 9.26339 7.4339 9.69602 6.92353C10.1286 6.41317 10.3661 5.76584 10.3662 5.09678C10.3805 4.95856 10.3871 4.81966 10.3861 4.68071C10.3958 4.08145 10.2027 3.4965 9.83829 3.02068L9.83829 3.02067Z" fill="#FAFBFF"/>
</svg>
