<svg width="12" height="12" viewBox="0 0 12 12" fill="none" xmlns="http://www.w3.org/2000/svg">
<g clip-path="url(#clip0_101_107)">
<path d="M7.75651 0.68782H3.85175C2.98874 0.68782 2.16108 1.03065 1.55084 1.64089C0.940606 2.25112 0.597778 3.07878 0.597778 3.94179L0.597778 7.84655C0.597778 8.70956 0.940606 9.53722 1.55084 10.1475C2.16108 10.7577 2.98874 11.1005 3.85175 11.1005H7.75651C8.61951 11.1005 9.44717 10.7577 10.0574 10.1475C10.6676 9.53722 11.0105 8.70956 11.0105 7.84655V3.94179C11.0105 3.07878 10.6676 2.25112 10.0574 1.64089C9.44717 1.03065 8.61951 0.68782 7.75651 0.68782V0.68782ZM10.0343 7.84655C10.0343 9.10258 9.01254 10.1243 7.75651 10.1243H3.85175C2.59571 10.1243 1.57397 9.10258 1.57397 7.84655V3.94179C1.57397 2.68576 2.59571 1.66401 3.85175 1.66401H7.75651C9.01254 1.66401 10.0343 2.68576 10.0343 3.94179V7.84655Z" fill="#FAFBFF"/>
<path d="M5.80419 3.291C5.11379 3.291 4.45166 3.56526 3.96347 4.05345C3.47528 4.54164 3.20102 5.20377 3.20102 5.89418C3.20102 6.58458 3.47528 7.24671 3.96347 7.7349C4.45166 8.22309 5.11379 8.49735 5.80419 8.49735C6.4946 8.49735 7.15673 8.22309 7.64492 7.7349C8.13311 7.24671 8.40737 6.58458 8.40737 5.89418C8.40737 5.20377 8.13311 4.54164 7.64492 4.05345C7.15673 3.56526 6.4946 3.291 5.80419 3.291ZM5.80419 7.52116C5.37285 7.52064 4.95932 7.34906 4.65431 7.04406C4.34931 6.73905 4.17773 6.32552 4.17721 5.89418C4.17721 4.99673 4.9074 4.26719 5.80419 4.26719C6.70099 4.26719 7.43118 4.99673 7.43118 5.89418C7.43118 6.79097 6.70099 7.52116 5.80419 7.52116Z" fill="#FAFBFF"/>
<path d="M8.60249 3.44265C8.79406 3.44265 8.94936 3.28735 8.94936 3.09577C8.94936 2.9042 8.79406 2.7489 8.60249 2.7489C8.41092 2.7489 8.25562 2.9042 8.25562 3.09577C8.25562 3.28735 8.41092 3.44265 8.60249 3.44265Z" fill="#FAFBFF"/>
</g>
<defs>
<clipPath id="clip0_101_107">
<rect width="10.4127" height="10.4127" fill="white" transform="translate(0.597839 0.687866)"/>
</clipPath>
</defs>
</svg>
