<svg width="12" height="12" viewBox="0 0 12 12" fill="none" xmlns="http://www.w3.org/2000/svg">
<g clip-path="url(#clip0_101_111)">
<path d="M0.71936 3.9418H3.0479V11.1005H0.71936V3.9418ZM9.39054 4.02576C9.36581 4.01795 9.34238 4.00949 9.31635 4.00233C9.28509 3.99525 9.25362 3.98918 9.22198 3.9841C9.08449 3.95599 8.94451 3.94182 8.80417 3.9418C7.44661 3.9418 6.58561 4.92906 6.30187 5.31042V3.9418H3.97333V11.1005H6.30187V7.19577C6.30187 7.19577 8.06161 4.74488 8.80417 6.54498V11.1005H11.1321V6.26969C11.1311 5.75565 10.9596 5.25647 10.6444 4.85038C10.3293 4.44429 9.88825 4.15426 9.39054 4.02576Z" fill="#FAFBFF"/>
<path d="M1.85831 2.96561C2.4873 2.96561 2.9972 2.45572 2.9972 1.82672C2.9972 1.19773 2.4873 0.687836 1.85831 0.687836C1.22932 0.687836 0.719421 1.19773 0.719421 1.82672C0.719421 2.45572 1.22932 2.96561 1.85831 2.96561Z" fill="#FAFBFF"/>
</g>
<defs>
<clipPath id="clip0_101_111">
<rect width="10.4127" height="10.4127" fill="white" transform="translate(0.719482 0.687836)"/>
</clipPath>
</defs>
</svg>
