<svg width="12" height="12" viewBox="0 0 12 12" fill="none" xmlns="http://www.w3.org/2000/svg">
<g clip-path="url(#clip0_101_117)">
<path d="M11.3757 2.99102C10.984 3.16185 10.5697 3.27539 10.1456 3.32813C10.5925 3.06301 10.9267 2.64321 11.0847 2.14824C10.6663 2.39641 10.2085 2.57117 9.73109 2.66497C9.4384 2.35245 9.05847 2.13517 8.64068 2.04138C8.2229 1.94758 7.78655 1.9816 7.38835 2.13901C6.99015 2.29643 6.64849 2.56996 6.40777 2.92407C6.16704 3.27819 6.03838 3.69651 6.03849 4.1247C6.03849 4.29391 6.05281 4.4566 6.08795 4.61149C5.23872 4.56986 4.40783 4.34945 3.64962 3.96468C2.89141 3.57991 2.22295 3.03945 1.68794 2.37862C1.41383 2.8484 1.32909 3.40499 1.45097 3.93506C1.57285 4.46513 1.89218 4.92881 2.34394 5.2317C2.00602 5.22264 1.67523 5.13246 1.37946 4.96878V4.99221C1.38003 5.48514 1.5504 5.96283 1.8619 6.34486C2.17341 6.72689 2.60702 6.98993 3.08975 7.08972C2.90712 7.13785 2.71891 7.16148 2.53006 7.16C2.39443 7.16241 2.25893 7.15019 2.12592 7.12356C2.26385 7.54724 2.52973 7.91775 2.88695 8.18406C3.24418 8.45038 3.67517 8.5994 4.1206 8.61062C3.36499 9.20157 2.43308 9.52214 1.47382 9.52108C1.29876 9.52108 1.13086 9.51327 0.962952 9.4918C1.93907 10.1208 3.07652 10.4536 4.23775 10.4498C8.16594 10.4498 10.3136 7.1958 10.3136 4.37526C10.3136 4.28089 10.3103 4.18978 10.3057 4.09932C10.7268 3.79799 11.0894 3.42242 11.3757 2.99102Z" fill="#FAFBFF"/>
</g>
<defs>
<clipPath id="clip0_101_117">
<rect width="10.4127" height="10.4127" fill="white" transform="translate(0.962891 0.687836)"/>
</clipPath>
</defs>
</svg>
